<svg width="32" height="33" viewBox="0 0 32 33" fill="none" xmlns="http://www.w3.org/2000/svg">
<path d="M16 2.68091C23.3714 2.68091 29.3333 8.64281 29.3333 16.0142C29.3333 23.3857 23.3714 29.3476 16 29.3476C8.62856 29.3476 2.66666 23.3857 2.66666 16.0142C2.66666 8.64281 8.62856 2.68091 16 2.68091ZM13.5619 23.0428C19.4667 23.0428 22.7048 18.1476 22.7048 13.9V13.4809C23.3333 13.0238 23.8857 12.4523 24.3048 11.8047C23.7333 12.0523 23.1048 12.2238 22.4571 12.319C23.1238 11.919 23.6381 11.2904 23.8667 10.5476C23.2381 10.9095 22.5524 11.1761 21.8286 11.3285C21.2381 10.7 20.4 10.319 19.4857 10.319C17.7143 10.319 16.2667 11.7666 16.2667 13.5381C16.2667 13.7857 16.2857 14.0333 16.3619 14.2619C13.6952 14.1285 11.3143 12.8523 9.73332 10.9095C9.46666 11.3857 9.29523 11.9381 9.29523 12.5285C9.29523 13.6333 9.86666 14.6238 10.7238 15.1952C10.1905 15.1952 9.69523 15.0428 9.27618 14.7952V14.8333C9.27618 16.3952 10.3809 17.6904 11.8476 17.9952C11.5809 18.0714 11.2952 18.1095 11.0095 18.1095C10.8 18.1095 10.6095 18.0904 10.4 18.0523C10.8 19.3285 12 20.2619 13.3905 20.2809C12.2857 21.1381 10.8952 21.6523 9.39047 21.6523C9.1238 21.6523 8.87618 21.6523 8.62856 21.6142C10.0381 22.5285 11.7333 23.0619 13.5428 23.0619" fill="#E2E8F0"/>
</svg>
